<svg xmlns="http://www.w3.org/2000/svg" viewBox="0 0 512 512">
	<defs>
		<linearGradient id="bg" x1="0%" y1="0%" x2="100%" y2="100%">
			<stop offset="0%" stop-color="#1A1814" />
			<stop offset="100%" stop-color="#0F0E0B" />
		</linearGradient>
	</defs>
	<rect width="512" height="512" rx="96" fill="url(#bg)" />
	<g transform="translate(96 80)" fill="#F8F4ED">
		<rect x="0" y="0" width="320" height="360" rx="12" fill="#F8F4ED" stroke="#1A1814" stroke-width="6" />
		<rect x="20" y="0" width="56" height="360" fill="#b45309" />
		<g fill="#1A1814">
			<rect x="100" y="40" width="180" height="6" rx="3" />
			<rect x="100" y="68" width="200" height="4" rx="2" opacity="0.5" />
			<rect x="100" y="86" width="160" height="4" rx="2" opacity="0.5" />
			<rect x="100" y="104" width="190" height="4" rx="2" opacity="0.5" />
		</g>
		<g transform="translate(100 160)" fill="#1A1814" opacity="0.7">
			<rect x="0" y="0" width="200" height="4" rx="2" />
			<rect x="0" y="18" width="180" height="4" rx="2" />
			<rect x="0" y="36" width="190" height="4" rx="2" />
			<rect x="0" y="54" width="170" height="4" rx="2" />
			<rect x="0" y="72" width="195" height="4" rx="2" />
			<rect x="0" y="90" width="160" height="4" rx="2" />
		</g>
	</g>
	<g transform="translate(280 300)" fill="#b45309">
		<path d="M40 0L80 30V60H0V30Z" />
		<rect x="35" y="-15" width="10" height="20" />
	</g>
</svg>
